{"title":"Sex Boat - 1980 - XVID MP3","uid":6628637,"size":721623906,"categoryP":"porn","categoryS":"movies","magnet":"?xt=urn:btih:7a4823146f90f715b36f51b40f7718124ee12c0e&amp;dn=Sex+Boat+-+1980+-+XVID+MP3&amp;tr=udp%3A%2F%2Ftracker.openbittorrent.com%3A80&amp;tr=udp%3A%2F%2Fopen.demonii.com%3A1337&amp;tr=udp%3A%2F%2Ftracker.coppersurfer.tk%3A6969&amp;tr=udp%3A%2F%2Fexodus.desync.com%3A6969","seeders":4,"leechers":0,"uploader":"skepticink","files":-1,"time":1314260835,"description":" &lt;a href=&quot;http://www.imdb.com/title/tt0083055/&quot; rel=&quot;nofollow&quot; target=&quot;_NEW&quot;&gt;http://www.imdb.com/title/tt0083055/&lt;/a&gt;\n\n=============\n\nTwo guys, Laura's driver and Roscoe, sneak aboard an all girl cruise ship with 600 horny, mouth watering broads for six whole weeks, with not one dude aboard! The trip of a lifetime takes a twist when slave trading pirates hijack the ship, with only our two heroes to stop them.\n\nStarring\n\nKandi Barbour, Loni Sanders, Nicole Black, Cody Nicole, Hillary Summers, Kelly Nichols\n\n=============\n\nVideo\nID                               : 0\nFormat                           : MPEG-4 Visual\nFormat profile                   : Advanced Simple@L5\nFormat settings, BVOP            : 2\nFormat settings, QPel            : No\nFormat settings, GMC             : No warppoints\nFormat settings, Matrix          : Default (H.263)\nMuxing mode                      : Packed bitstream\nCodec ID                         : XVID\nCodec ID/Hint                    : XviD\nDuration                         : 1h 20mn\nBit rate                         : 1 116 Kbps\nWidth                            : 704 pixels\nHeight                           : 470 pixels\nDisplay aspect ratio             : 3:2\nFrame rate                       : 25.000 fps\nColor space                      : YUV\nChroma subsampling               : 4:2:0\nBit depth                        : 8 bits\nScan type                        : Progressive\nCompression mode                 : Lossy\nBits/(Pixel*Frame)               : 0.135\nStream size                      : 644 MiB (94%)\nWriting library                  : XviD 1.2.1 (UTC 2008-12-04)\n\nAudio\nID                               : 1\nFormat                           : MPEG Audio\nFormat version                   : Version 1\nFormat profile                   : Layer 3\nMode                             : Joint stereo\nMode extension                   : MS Stereo\nCodec ID                         : 55\nCodec ID/Hint                    : MP3\nDuration                         : 1h 20mn\nBit rate mode                    : Constant\nBit rate                         : 64.0 Kbps\nChannel(s)                       : 2 channels\nSampling rate                    : 48.0 KHz\nCompression mode                 : Lossy\nStream size                      : 36.9 MiB (5%)\nAlignment                        : Aligned on interleaves\nInterleave, duration             : 24 ms (0.60 video frame)\nInterleave, preload duration     : 24 ms\n","torrent":{"xt":"urn:btih:7a4823146f90f715b36f51b40f7718124ee12c0e","amp;dn":"Sex+Boat+-+1980+-+XVID+MP3","amp;tr":["udp%3A%2F%2Ftracker.openbittorrent.com%3A80","udp%3A%2F%2Fopen.demonii.com%3A1337","udp%3A%2F%2Ftracker.coppersurfer.tk%3A6969","udp%3A%2F%2Fexodus.desync.com%3A6969"],"infoHash":"7a4823146f90f715b36f51b40f7718124ee12c0e","infoHashBuffer":{"type":"Buffer","data":[122,72,35,20,111,144,247,21,179,111,81,180,15,119,24,18,78,225,44,14]},"announce":[],"urlList":[]}}